<?xml version="1.0" encoding="UTF-8"?>
<svg id="Capa_2" data-name="Capa 2" xmlns="http://www.w3.org/2000/svg" xmlns:xlink="http://www.w3.org/1999/xlink" viewBox="0 0 595.28 595.28">
  <defs>
    <style>
      .cls-1 {
        fill: #fff;
      }

      .cls-2, .cls-3 {
        fill: none;
      }

      .cls-4 {
        fill: #082bf9;
      }

      .cls-5 {
        fill: url(#Degradado_sin_nombre_10);
      }

      .cls-6 {
        fill: #f43f5e;
      }

      .cls-3 {
        stroke: #f43f5e;
        stroke-miterlimit: 10;
      }
    </style>
    <linearGradient id="Degradado_sin_nombre_10" data-name="Degradado sin nombre 10" x1="0" y1="297.64" x2="595.28" y2="297.64" gradientUnits="userSpaceOnUse">
      <stop offset="0" stop-color="#22d3ee"/>
      <stop offset="1" stop-color="#018aaa"/>
    </linearGradient>
  </defs>
  <g id="Layer_1" data-name="Layer 1">
    <g>
      <path id="Shape" class="cls-5" d="M565.52,0H29.76C13.61,0,0,13.61,0,29.76v535.75c0,16.16,13.61,29.76,29.76,29.76h535.75c16.16,0,29.76-13.61,29.76-29.76V29.76c0-16.16-13.61-29.76-29.76-29.76h0Z"/>
      <path class="cls-6" d="M420.56,116.33h-83.27c-17.78,0-32.32,14.55-32.32,32.32,0-17.78-14.55-32.32-32.33-32.32H111.78v328.06h122.54l109.28,109.28v-109.28l-77.28-77.27h-77.27v-173.51h83.58c17.78,0,32.33,14.55,32.33,32.32,0-17.78,14.54-32.32,32.32-32.32h81.54v173.51h-75.23v77.27h152.5V116.33h-75.54Z"/>
      <path class="cls-2" d="M420.56,367.12v-173.51h-83.27c-17.78,0-32.32,14.55-32.32,32.32,0-17.78-14.55-32.32-32.33-32.32h-83.58v173.51h77.27l77.28,77.27v-77.27h76.96Z"/>
      <polygon class="cls-2" points="189.87 319.46 266.91 319.46 228.39 200.61 189.87 319.46"/>
      <path class="cls-2" d="M337.29,193.6c-12.59,0-23.56,7.3-28.88,17.88l54.71,155.64h55.51v-173.51h-81.33Z"/>
      <rect class="cls-1" x="418.62" y="193.6" width=".21" height="173.51"/>
      <path class="cls-1" d="M274.99,116.43l-.05-.13h-93.11v.04s90.8,0,90.8,0c.79,0,1.57.04,2.35.1Z"/>
      <path class="cls-1" d="M304.97,225.93c0-17.78-14.55-32.32-32.33-32.32h-83.58v173.51h77.27l77.28,77.27v-77.27h19.51l-54.71-155.64c-2.19,4.36-3.44,9.26-3.44,14.45ZM189.87,319.46l38.52-118.85,38.52,118.85h-77.04Z"/>
      <path class="cls-1" d="M111.78,316.35l-44.99,128.47h84.16l.15-.43h-39.32v-128.04Z"/>
      <polygon class="cls-1" points="343.6 444.82 390.43 444.82 390.28 444.39 343.6 444.39 343.6 444.82"/>
      <g>
        <path class="cls-4" d="M419.3,444.39h76.81V116.33h-76.81"/>
        <path class="cls-1" d="M419.3,444.39h76.81V116.33h-76.81"/>
      </g>
      <g>
        <path class="cls-4" d="M266.33,367.12h-77.27v-173.51h83.58c17.78,0,32.33,14.55,32.33,32.32,0-5.19,1.24-10.09,3.44-14.45l-33.41-95.05c-.78-.06-1.56-.1-2.35-.1h-90.82l-70.04,200.02v128.04h39.32l20.32-58.04h113.94l20.47,58.47h37.77v-.43l-77.28-77.27Z"/>
        <path class="cls-1" d="M266.33,367.12h-77.27v-173.51h83.58c17.78,0,32.33,14.55,32.33,32.32,0-5.19,1.24-10.09,3.44-14.45l-33.41-95.05c-.78-.06-1.56-.1-2.35-.1h-90.82l-70.04,200.02v128.04h39.32l20.32-58.04h113.94l20.47,58.47h37.77v-.43l-77.28-77.27Z"/>
      </g>
      <g>
        <polygon class="cls-4" points="343.6 367.12 343.6 444.39 390.28 444.39 363.12 367.12 343.6 367.12"/>
        <polygon class="cls-1" points="343.6 367.12 343.6 444.39 390.28 444.39 363.12 367.12 343.6 367.12"/>
      </g>
      <path class="cls-3" d="M420.56,116.33h-83.27c-17.78,0-32.32,14.55-32.32,32.32,0-17.78-14.55-32.32-32.33-32.32H111.78v328.06h122.54l109.28,109.28v-109.28l-77.28-77.27h-77.27v-173.51h83.58c17.78,0,32.33,14.55,32.33,32.32,0-17.78,14.54-32.32,32.32-32.32h81.54v173.51h-75.23v77.27h152.5V116.33h-75.54Z"/>
    </g>
  </g>
</svg>