<?xml version="1.0" encoding="UTF-8"?>
<svg id="Capa_2" data-name="Capa 2" xmlns="http://www.w3.org/2000/svg" viewBox="0 0 522.22 322.94">
  <defs>
    <style>
      .cls-1 {
        fill: #22d3ee;
      }

      .cls-2 {
        fill: #f43f5e;
      }
    </style>
  </defs>
  <g id="Layer_1" data-name="Layer 1">
    <g>
      <g>
        <g>
          <path class="cls-2" d="M62.69.39h-28L.24,96.26h27.72l5.42-16.71h30.75l5.42,16.71h27.89L62.69.39ZM37.52,59.62l11.52-34.54,11.52,34.54h-23.04Z"/>
          <rect class="cls-2" x="106.72" y=".59" width="22.4" height="95.34"/>
        </g>
        <g>
          <path class="cls-1" d="M151.1,95.77V.81h40.96c10.58,0,18.79,2.13,24.62,6.38,5.83,4.25,8.75,10.26,8.75,18.04,0,5.15-1.2,9.5-3.59,13.02-2.4,3.53-5.65,6.19-9.77,8-4.12,1.81-8.61,2.71-13.5,2.71l2.31-3.26c6.06,0,11.28.93,15.67,2.78,4.38,1.85,7.8,4.61,10.24,8.27,2.44,3.66,3.66,8.21,3.66,13.63,0,8.05-2.96,14.29-8.88,18.72-5.92,4.43-14.85,6.65-26.79,6.65h-43.68ZM161.14,87.49h33.5c8.32,0,14.69-1.42,19.12-4.27,4.43-2.85,6.65-7.39,6.65-13.63s-2.22-10.65-6.65-13.5c-4.43-2.85-10.81-4.27-19.12-4.27h-34.59v-8.27h31.33c7.6,0,13.5-1.45,17.7-4.34,4.21-2.89,6.31-7.19,6.31-12.89s-2.1-10.11-6.31-12.95c-4.2-2.85-10.11-4.27-17.7-4.27h-30.25v78.4Z"/>
          <path class="cls-1" d="M253.38,95.77V.81h10.04v86.27h53.17v8.68h-63.21Z"/>
          <path class="cls-1" d="M372.88,96.58c-7.14,0-13.77-1.2-19.87-3.59-6.1-2.4-11.39-5.79-15.87-10.17-4.48-4.39-7.96-9.5-10.44-15.33-2.49-5.83-3.73-12.23-3.73-19.19s1.24-13.36,3.73-19.19c2.49-5.83,5.97-10.94,10.44-15.33,4.48-4.39,9.74-7.78,15.8-10.17,6.06-2.4,12.7-3.59,19.94-3.59s13.75,1.2,19.8,3.59c6.06,2.4,11.33,5.76,15.8,10.11,4.48,4.34,7.96,9.45,10.45,15.33,2.49,5.88,3.73,12.3,3.73,19.26s-1.24,13.38-3.73,19.26c-2.49,5.88-5.97,10.99-10.45,15.33-4.48,4.34-9.75,7.71-15.8,10.11-6.06,2.4-12.66,3.59-19.8,3.59ZM372.88,87.63c5.7,0,10.96-.97,15.8-2.92,4.84-1.94,9.04-4.7,12.62-8.27,3.57-3.57,6.35-7.73,8.34-12.48,1.99-4.75,2.98-9.97,2.98-15.67s-1-10.92-2.98-15.67c-1.99-4.75-4.77-8.91-8.34-12.48-3.57-3.57-7.78-6.33-12.62-8.27-4.84-1.94-10.11-2.92-15.8-2.92s-10.99.97-15.87,2.92c-4.88,1.95-9.13,4.7-12.75,8.27-3.62,3.57-6.42,7.73-8.41,12.48-1.99,4.75-2.98,9.97-2.98,15.67s.99,10.81,2.98,15.6c1.99,4.79,4.79,8.98,8.41,12.55,3.62,3.57,7.87,6.33,12.75,8.27,4.88,1.95,10.17,2.92,15.87,2.92Z"/>
          <path class="cls-1" d="M486.82,96.58c-7.24,0-13.9-1.2-20.01-3.59-6.1-2.4-11.39-5.76-15.87-10.11s-7.96-9.45-10.44-15.33c-2.49-5.88-3.73-12.3-3.73-19.26s1.24-13.38,3.73-19.26c2.49-5.88,5.99-10.99,10.51-15.33,4.52-4.34,9.83-7.71,15.94-10.11,6.1-2.4,12.77-3.59,20.01-3.59s13.86,1.13,19.87,3.39c6.01,2.26,11.14,5.7,15.4,10.31l-6.24,6.38c-3.98-3.98-8.37-6.83-13.16-8.55-4.79-1.72-9.95-2.58-15.46-2.58-5.88,0-11.28.97-16.21,2.92-4.93,1.95-9.22,4.7-12.89,8.27-3.66,3.57-6.51,7.73-8.54,12.48-2.04,4.75-3.05,9.97-3.05,15.67s1.02,10.81,3.05,15.6c2.03,4.79,4.88,8.98,8.54,12.55,3.66,3.57,7.96,6.33,12.89,8.27,4.93,1.95,10.29,2.92,16.07,2.92,5.43,0,10.56-.81,15.4-2.44,4.84-1.63,9.29-4.39,13.36-8.27l5.7,7.6c-4.52,3.98-9.81,6.99-15.87,9.02-6.06,2.03-12.39,3.05-18.99,3.05ZM512.05,83.29v-35h9.63v36.22l-9.63-1.22Z"/>
        </g>
      </g>
      <g>
        <path class="cls-1" d="M0,197.39v-80.67h36.19c9.29,0,16.44,1.86,21.44,5.59,4.99,3.73,7.49,8.82,7.49,15.27,0,4.38-.98,8.07-2.94,11.06-1.96,3-4.59,5.3-7.89,6.91-3.3,1.61-6.88,2.42-10.72,2.42l2.07-3.46c4.61,0,8.68.81,12.22,2.42,3.53,1.61,6.34,3.98,8.41,7.09s3.11,6.97,3.11,11.58c0,6.92-2.59,12.27-7.78,16.08-5.19,3.8-12.89,5.7-23.11,5.7H0ZM11.52,188.06h26.51c6.38,0,11.25-1.08,14.64-3.23,3.38-2.15,5.07-5.53,5.07-10.14s-1.69-8.1-5.07-10.26c-3.38-2.15-8.26-3.23-14.64-3.23H10.49v-9.33h24.66c5.84,0,10.37-1.08,13.6-3.23,3.23-2.15,4.84-5.38,4.84-9.68s-1.61-7.53-4.84-9.68c-3.23-2.15-7.76-3.23-13.6-3.23H11.52v62Z"/>
        <path class="cls-1" d="M120.66,198.31c-10.6,0-18.94-3.03-25.01-9.1-6.07-6.07-9.1-14.94-9.1-26.62v-45.87h11.52v45.41c0,8.99,1.98,15.56,5.93,19.71,3.96,4.15,9.55,6.22,16.77,6.22s12.92-2.07,16.88-6.22c3.96-4.15,5.94-10.72,5.94-19.71v-45.41h11.18v45.87c0,11.68-3.02,20.55-9.05,26.62-6.03,6.07-14.39,9.1-25.07,9.1Z"/>
        <path class="cls-1" d="M178.39,197.39v-80.67h11.52v80.67h-11.52Z"/>
        <path class="cls-1" d="M214.12,197.39v-80.67h11.52v70.64h43.68v10.03h-55.2Z"/>
        <path class="cls-1" d="M282.57,197.39v-80.67h34c8.6,0,16.19,1.69,22.76,5.07,6.57,3.38,11.68,8.11,15.33,14.17,3.65,6.07,5.47,13.1,5.47,21.09s-1.83,15.02-5.47,21.09c-3.65,6.07-8.76,10.8-15.33,14.18-6.57,3.38-14.16,5.07-22.76,5.07h-34ZM294.1,187.36h21.78c6.68,0,12.46-1.27,17.34-3.8,4.88-2.54,8.66-6.09,11.35-10.66,2.69-4.57,4.03-9.85,4.03-15.85s-1.35-11.37-4.03-15.9c-2.69-4.53-6.47-8.07-11.35-10.6-4.88-2.54-10.66-3.8-17.34-3.8h-21.78v60.62Z"/>
        <path class="cls-1" d="M389.29,187.36h47.02v10.03h-58.54v-80.67h56.93v10.03h-45.41v60.62ZM388.25,151.52h41.49v9.8h-41.49v-9.8Z"/>
        <path class="cls-1" d="M454.98,197.39v-80.67h31.46c7.07,0,13.1,1.11,18.09,3.34,4.99,2.23,8.83,5.46,11.52,9.68,2.69,4.23,4.03,9.26,4.03,15.1s-1.35,10.85-4.03,15.04c-2.69,4.19-6.53,7.4-11.52,9.62-5,2.23-11.03,3.34-18.09,3.34h-25.12l5.19-5.3v29.85h-11.52ZM466.5,168.69l-5.19-5.65h24.78c7.38,0,12.96-1.59,16.77-4.78,3.8-3.19,5.71-7.66,5.71-13.43s-1.9-10.22-5.71-13.37c-3.8-3.15-9.39-4.72-16.77-4.72h-24.78l5.19-5.76v47.71ZM508.91,197.39l-20.51-29.27h12.33l20.74,29.27h-12.56Z"/>
      </g>
      <g>
        <path class="cls-1" d="M0,321.73v-106.12h41.39c9.3,0,17.23,1.47,23.8,4.4,6.57,2.93,11.62,7.18,15.16,12.73,3.54,5.56,5.31,12.18,5.31,19.86s-1.77,14.28-5.31,19.78c-3.54,5.51-8.59,9.75-15.16,12.73-6.57,2.98-14.5,4.47-23.8,4.47H8.34l6.82-7.13v39.26H0ZM15.16,283.98l-6.82-7.58h32.59c9.7,0,17.05-2.07,22.06-6.22,5-4.14,7.5-10,7.5-17.58s-2.5-13.44-7.5-17.59c-5-4.14-12.36-6.22-22.06-6.22H8.34l6.82-7.58v62.76Z"/>
        <path class="cls-1" d="M107.94,321.73v-106.12h41.39c9.3,0,17.23,1.47,23.8,4.4,6.57,2.93,11.62,7.18,15.16,12.73,3.54,5.56,5.31,12.18,5.31,19.86s-1.77,14.28-5.31,19.78c-3.54,5.51-8.59,9.73-15.16,12.66-6.57,2.93-14.5,4.4-23.8,4.4h-33.05l6.82-6.97v39.26h-15.16ZM123.1,283.98l-6.82-7.43h32.59c9.7,0,17.05-2.1,22.06-6.29,5-4.19,7.5-10.08,7.5-17.66s-2.5-13.44-7.5-17.59c-5-4.14-12.36-6.22-22.06-6.22h-32.59l6.82-7.58v62.76ZM178.89,321.73l-26.98-38.51h16.22l27.29,38.51h-16.52Z"/>
        <path class="cls-1" d="M266.05,322.94c-8.09,0-15.59-1.36-22.51-4.09-6.92-2.73-12.91-6.54-17.96-11.45-5.06-4.9-9-10.64-11.83-17.21-2.83-6.57-4.25-13.74-4.25-21.53s1.41-14.96,4.25-21.53c2.83-6.57,6.77-12.3,11.83-17.21,5.05-4.9,11.01-8.72,17.89-11.45,6.87-2.73,14.4-4.09,22.59-4.09s15.56,1.34,22.44,4.02c6.87,2.68,12.83,6.47,17.89,11.37,5.05,4.9,8.97,10.66,11.75,17.28,2.78,6.62,4.17,13.82,4.17,21.6s-1.39,15.11-4.17,21.68c-2.78,6.57-6.7,12.31-11.75,17.21-5.05,4.9-11.02,8.69-17.89,11.37-6.87,2.68-14.35,4.02-22.44,4.02ZM265.9,309.45c5.96,0,11.45-1.01,16.45-3.03,5-2.02,9.35-4.88,13.04-8.57s6.57-8.01,8.64-12.96c2.07-4.95,3.11-10.36,3.11-16.22s-1.04-11.24-3.11-16.15c-2.07-4.9-4.95-9.22-8.64-12.96-3.69-3.74-8.03-6.62-13.04-8.64-5-2.02-10.49-3.03-16.45-3.03s-11.29,1.01-16.3,3.03c-5,2.02-9.38,4.9-13.11,8.64s-6.65,8.06-8.72,12.96c-2.07,4.9-3.11,10.29-3.11,16.15s1.04,11.27,3.11,16.22c2.07,4.95,4.98,9.27,8.72,12.96,3.74,3.69,8.11,6.54,13.11,8.57,5,2.02,10.43,3.03,16.3,3.03Z"/>
      </g>
    </g>
  </g>
</svg>