<?xml version="1.0" encoding="UTF-8"?>
<svg id="Capa_2" data-name="Capa 2" xmlns="http://www.w3.org/2000/svg" viewBox="0 0 522.22 194.13">
  <defs>
    <style>
      .cls-1 {
        fill: #22d3ee;
      }

      .cls-2 {
        fill: #f43f5e;
      }
    </style>
  </defs>
  <g id="Layer_1" data-name="Layer 1">
    <g>
      <g>
        <g>
          <path class="cls-2" d="M62.69.38h-28L.24,94.23h27.72l5.42-16.36h30.75l5.42,16.36h27.89L62.69.38ZM37.52,58.37l11.52-33.81,11.52,33.81h-23.04Z"/>
          <rect class="cls-2" x="106.72" y=".58" width="22.4" height="93.33"/>
        </g>
        <g>
          <path class="cls-1" d="M151.1,93.75V.8h40.96c10.58,0,18.79,2.08,24.62,6.24,5.83,4.16,8.75,10.05,8.75,17.66,0,5.05-1.2,9.3-3.59,12.75-2.4,3.45-5.65,6.06-9.77,7.83-4.12,1.77-8.61,2.66-13.5,2.66l2.31-3.19c6.06,0,11.28.91,15.67,2.72,4.38,1.82,7.8,4.51,10.24,8.1,2.44,3.59,3.66,8.03,3.66,13.35,0,7.88-2.96,13.99-8.88,18.32-5.92,4.34-14.85,6.51-26.79,6.51h-43.68ZM161.14,85.65h33.5c8.32,0,14.69-1.39,19.12-4.18,4.43-2.79,6.65-7.24,6.65-13.34s-2.22-10.42-6.65-13.21c-4.43-2.79-10.81-4.18-19.12-4.18h-34.59v-8.1h31.33c7.6,0,13.5-1.41,17.7-4.25,4.21-2.83,6.31-7.04,6.31-12.61s-2.1-9.89-6.31-12.68c-4.2-2.79-10.11-4.18-17.7-4.18h-30.25v76.75Z"/>
          <path class="cls-1" d="M253.38,93.75V.8h10.04v84.45h53.17v8.5h-63.21Z"/>
          <path class="cls-1" d="M372.88,94.54c-7.14,0-13.77-1.17-19.87-3.52-6.1-2.34-11.39-5.66-15.87-9.96-4.48-4.29-7.96-9.3-10.44-15-2.49-5.71-3.73-11.97-3.73-18.79s1.24-13.08,3.73-18.79c2.49-5.71,5.97-10.71,10.44-15,4.48-4.29,9.74-7.61,15.8-9.96,6.06-2.34,12.7-3.52,19.94-3.52s13.75,1.17,19.8,3.52c6.06,2.35,11.33,5.64,15.8,9.89,4.48,4.25,7.96,9.25,10.45,15,2.49,5.76,3.73,12.04,3.73,18.86s-1.24,13.1-3.73,18.86c-2.49,5.76-5.97,10.76-10.45,15-4.48,4.25-9.75,7.55-15.8,9.89-6.06,2.35-12.66,3.52-19.8,3.52ZM372.88,85.78c5.7,0,10.96-.95,15.8-2.86,4.84-1.9,9.04-4.6,12.62-8.1,3.57-3.5,6.35-7.57,8.34-12.22,1.99-4.65,2.98-9.76,2.98-15.34s-1-10.69-2.98-15.34c-1.99-4.65-4.77-8.72-8.34-12.22-3.57-3.5-7.78-6.2-12.62-8.1-4.84-1.9-10.11-2.86-15.8-2.86s-10.99.95-15.87,2.86c-4.88,1.9-9.13,4.6-12.75,8.1-3.62,3.5-6.42,7.57-8.41,12.22-1.99,4.65-2.98,9.76-2.98,15.34s.99,10.58,2.98,15.27c1.99,4.69,4.79,8.79,8.41,12.28,3.62,3.5,7.87,6.2,12.75,8.1,4.88,1.9,10.17,2.86,15.87,2.86Z"/>
          <path class="cls-1" d="M486.82,94.54c-7.24,0-13.9-1.17-20.01-3.52-6.1-2.34-11.39-5.64-15.87-9.89s-7.96-9.25-10.44-15c-2.49-5.75-3.73-12.04-3.73-18.86s1.24-13.1,3.73-18.86c2.49-5.75,5.99-10.76,10.51-15,4.52-4.25,9.83-7.55,15.94-9.89,6.1-2.34,12.77-3.52,20.01-3.52s13.86,1.11,19.87,3.32c6.01,2.21,11.14,5.58,15.4,10.09l-6.24,6.24c-3.98-3.89-8.37-6.68-13.16-8.37-4.79-1.68-9.95-2.52-15.46-2.52-5.88,0-11.28.95-16.21,2.86-4.93,1.9-9.22,4.6-12.89,8.1-3.66,3.5-6.51,7.57-8.54,12.22-2.04,4.65-3.05,9.76-3.05,15.34s1.02,10.58,3.05,15.27c2.03,4.69,4.88,8.79,8.54,12.28,3.66,3.5,7.96,6.2,12.89,8.1,4.93,1.9,10.29,2.86,16.07,2.86,5.43,0,10.56-.8,15.4-2.39,4.84-1.59,9.29-4.29,13.36-8.1l5.7,7.44c-4.52,3.9-9.81,6.84-15.87,8.83-6.06,1.99-12.39,2.99-18.99,2.99ZM512.05,81.53v-34.26h9.63v35.45l-9.63-1.2Z"/>
        </g>
      </g>
      <g>
        <path class="cls-1" d="M0,193.23v-78.97h36.19c9.29,0,16.44,1.82,21.44,5.47,4.99,3.65,7.49,8.63,7.49,14.95,0,4.29-.98,7.9-2.94,10.83-1.96,2.93-4.59,5.19-7.89,6.77-3.3,1.58-6.88,2.37-10.72,2.37l2.07-3.39c4.61,0,8.68.79,12.22,2.37,3.53,1.58,6.34,3.89,8.41,6.94s3.11,6.83,3.11,11.34c0,6.77-2.59,12.01-7.78,15.74-5.19,3.72-12.89,5.58-23.11,5.58H0ZM11.52,184.09h26.51c6.38,0,11.25-1.05,14.64-3.16,3.38-2.11,5.07-5.42,5.07-9.93s-1.69-7.93-5.07-10.04c-3.38-2.1-8.26-3.16-14.64-3.16H10.49v-9.14h24.66c5.84,0,10.37-1.05,13.6-3.16,3.23-2.11,4.84-5.26,4.84-9.48s-1.61-7.37-4.84-9.48c-3.23-2.11-7.76-3.16-13.6-3.16H11.52v60.69Z"/>
        <path class="cls-1" d="M120.66,194.13c-10.6,0-18.94-2.97-25.01-8.91-6.07-5.94-9.1-14.63-9.1-26.06v-44.9h11.52v44.45c0,8.8,1.98,15.23,5.93,19.29,3.96,4.06,9.55,6.09,16.77,6.09s12.92-2.03,16.88-6.09c3.96-4.06,5.94-10.49,5.94-19.29v-44.45h11.18v44.9c0,11.43-3.02,20.12-9.05,26.06-6.03,5.94-14.39,8.91-25.07,8.91Z"/>
        <path class="cls-1" d="M178.39,193.23v-78.97h11.52v78.97h-11.52Z"/>
        <path class="cls-1" d="M214.12,193.23v-78.97h11.52v69.16h43.68v9.82h-55.2Z"/>
        <path class="cls-1" d="M282.57,193.23v-78.97h34c8.6,0,16.19,1.65,22.76,4.96,6.57,3.31,11.68,7.94,15.33,13.88,3.65,5.94,5.47,12.82,5.47,20.65s-1.83,14.7-5.47,20.64c-3.65,5.94-8.76,10.57-15.33,13.88-6.57,3.31-14.16,4.96-22.76,4.96h-34ZM294.1,183.42h21.78c6.68,0,12.46-1.24,17.34-3.72,4.88-2.48,8.66-5.96,11.35-10.44,2.69-4.47,4.03-9.65,4.03-15.51s-1.35-11.13-4.03-15.57c-2.69-4.44-6.47-7.9-11.35-10.38-4.88-2.48-10.66-3.72-17.34-3.72h-21.78v59.34Z"/>
        <path class="cls-1" d="M389.29,183.42h47.02v9.82h-58.54v-78.97h56.93v9.82h-45.41v59.34ZM388.25,148.33h41.49v9.59h-41.49v-9.59Z"/>
        <path class="cls-1" d="M454.98,193.23v-78.97h31.46c7.07,0,13.1,1.09,18.09,3.27,4.99,2.18,8.83,5.34,11.52,9.48,2.69,4.14,4.03,9.06,4.03,14.78s-1.35,10.62-4.03,14.72c-2.69,4.1-6.53,7.24-11.52,9.42-5,2.18-11.03,3.27-18.09,3.27h-25.12l5.19-5.19v29.22h-11.52ZM466.5,165.14l-5.19-5.53h24.78c7.38,0,12.96-1.56,16.77-4.68,3.8-3.12,5.71-7.5,5.71-13.14s-1.9-10-5.71-13.09c-3.8-3.08-9.39-4.63-16.77-4.63h-24.78l5.19-5.64v46.71ZM508.91,193.23l-20.51-28.66h12.33l20.74,28.66h-12.56Z"/>
      </g>
    </g>
  </g>
</svg>